<?xml version="1.0" standalone="no"?>
<!DOCTYPE svg PUBLIC "-//W3C//DTD SVG 20010904//EN"
 "http://www.w3.org/TR/2001/REC-SVG-20010904/DTD/svg10.dtd">
<svg version="1.0" xmlns="http://www.w3.org/2000/svg"
 width="200.000000pt" height="200.000000pt" viewBox="0 0 200.000000 200.000000"
 preserveAspectRatio="xMidYMid meet">
<metadata>
Created by potrace 1.11, written by Peter Selinger 2001-2013
</metadata>
<g transform="translate(0.000000,200.000000) scale(0.100000,-0.100000)"
fill="#000000" stroke="none">
<path d="M1175 1861 c-3 -5 2 -17 11 -25 19 -20 25 -20 18 -1 -4 8 -10 15 -16
15 -5 0 -6 5 -3 10 3 6 4 10 1 10 -3 0 -7 -4 -11 -9z"/>
<path d="M1143 1840 c2 -20 -3 -25 -23 -25 -14 0 -32 -4 -40 -10 -8 -5 -24
-10 -35 -10 -11 0 -23 5 -27 10 -4 6 -8 2 -8 -7 0 -10 -5 -18 -11 -18 -5 0 -8
4 -4 9 3 5 1 12 -5 16 -6 4 -7 11 -4 17 4 7 2 8 -5 4 -9 -6 -9 -11 1 -24 11
-13 10 -15 -4 -9 -11 4 -15 2 -12 -6 2 -7 20 -13 39 -14 19 0 32 3 29 8 -3 5
-1 9 3 9 5 0 14 -10 22 -22 13 -20 12 -22 -1 -11 -11 10 -17 10 -26 1 -9 -9
-12 -9 -12 0 0 10 -5 10 -21 1 -12 -6 -24 -7 -28 -3 -11 15 -69 26 -76 14 -3
-5 2 -7 12 -6 10 2 24 -2 31 -10 14 -16 4 -18 -17 -5 -9 6 -22 6 -34 0 -16 -9
-17 -8 -8 10 14 25 14 34 1 26 -9 -5 -14 7 -12 26 1 4 -9 4 -21 1 -18 -5 -19
-7 -4 -10 9 -2 15 -7 12 -12 -3 -5 -13 -7 -23 -4 -14 5 -14 4 -3 -4 8 -6 20
-8 28 -5 7 3 13 0 13 -7 0 -6 -4 -8 -10 -5 -5 3 -10 0 -10 -7 0 -10 -2 -10 -8
-1 -4 7 -19 14 -32 17 -14 2 -24 9 -22 16 1 7 -2 8 -10 3 -7 -4 -16 -8 -20 -8
-3 0 -10 -4 -15 -9 -4 -5 -3 -6 3 -3 7 4 14 0 17 -7 4 -10 -1 -14 -14 -13 -17
1 -23 10 -20 30 0 4 -3 7 -9 7 -13 0 -13 -6 0 -31 15 -27 3 -44 -18 -26 -28
23 -39 27 -39 12 0 -8 4 -12 8 -10 3 3 13 -3 20 -13 13 -15 12 -16 -3 -3 -12
9 -18 10 -18 2 0 -6 -5 -11 -11 -11 -5 0 -7 5 -4 10 3 6 -1 10 -10 10 -12 0
-15 -5 -11 -17 4 -10 4 -14 0 -10 -4 4 -18 -3 -30 -14 l-23 -22 4 22 c2 11 6
25 9 30 3 5 0 11 -8 14 -10 4 -12 0 -8 -16 5 -20 4 -21 -14 -7 -17 13 -18 13
-8 0 16 -23 15 -60 -2 -60 -8 0 -14 5 -14 11 0 5 4 8 9 5 5 -4 7 4 3 16 l-5
22 -8 -22 c-5 -13 -15 -25 -24 -28 -8 -4 -15 -11 -15 -16 0 -7 5 -6 14 1 11 9
15 8 20 -5 4 -9 4 -19 1 -22 -3 -3 -5 0 -5 6 0 7 -5 12 -11 12 -5 0 -7 -5 -3
-11 5 -8 1 -8 -13 0 -11 6 -23 7 -27 4 -3 -3 -6 -2 -6 3 0 6 5 15 11 21 8 8 7
13 -3 18 -7 5 -10 5 -6 0 4 -4 3 -14 -3 -21 -6 -7 -7 -19 -3 -25 11 -18 11
-70 0 -59 -5 5 -16 5 -27 -1 -15 -7 -17 -6 -13 6 3 8 10 13 14 10 5 -3 12 0
16 6 4 8 3 9 -4 5 -8 -4 -12 0 -13 11 0 16 -1 15 -9 -2 -4 -12 -16 -27 -26
-35 -17 -14 -18 -14 -5 2 18 24 7 55 -14 38 -12 -10 -15 -10 -15 0 0 7 -9 2
-21 -11 -12 -13 -26 -23 -33 -21 -7 2 -7 -1 1 -9 11 -10 16 -9 28 7 15 18 16
18 9 -6 -6 -23 -6 -24 12 -10 17 14 18 13 7 -1 -7 -9 -9 -20 -5 -24 4 -5 2 -5
-5 -1 -8 4 -11 -1 -10 -14 1 -11 7 -20 15 -20 8 0 10 5 6 13 -4 6 -3 8 1 4 5
-4 10 -14 11 -22 1 -10 -4 -12 -19 -6 -15 6 -22 17 -22 33 1 14 -4 25 -10 25
-5 0 -19 4 -30 8 l-20 7 20 -13 c28 -17 36 -32 22 -41 -9 -6 -9 -8 1 -8 7 0
10 -5 6 -12 -4 -6 -3 -8 4 -4 6 3 17 0 25 -8 8 -8 18 -12 23 -8 5 4 3 0 -4 -9
-6 -9 -8 -20 -4 -25 4 -4 -1 -2 -10 5 -21 15 -24 26 -5 15 6 -4 8 -3 4 1 -4 5
-14 10 -22 11 -12 2 -12 -1 1 -21 10 -16 12 -25 4 -30 -6 -3 -8 -11 -5 -16 4
-5 -1 -12 -10 -15 -9 -4 -14 -13 -11 -21 4 -9 2 -11 -6 -7 -7 5 -9 2 -5 -9 4
-11 2 -14 -8 -11 -10 4 -13 -2 -10 -28 3 -20 1 -28 -4 -20 -7 11 -10 10 -15
-3 -9 -24 -8 -27 6 -19 7 4 8 3 4 -5 -4 -6 -11 -9 -16 -6 -5 3 -11 -4 -15 -15
-3 -11 -11 -20 -16 -20 -5 0 -2 12 8 26 17 27 17 27 -5 15 -13 -7 -20 -17 -16
-23 5 -8 1 -9 -12 -5 -18 7 -18 6 -1 -7 9 -7 17 -19 17 -26 0 -10 -4 -9 -17 1
-9 8 -14 9 -10 3 4 -7 0 -17 -8 -24 -13 -11 -14 -10 -9 4 3 9 1 16 -6 16 -6 0
-9 -4 -5 -9 3 -6 -3 -15 -12 -21 -16 -10 -16 -11 -1 -6 10 3 20 1 23 -4 3 -5
12 -7 21 -3 12 4 14 0 8 -23 -9 -38 -14 -45 -25 -39 -16 11 -9 -7 8 -21 27
-20 32 -17 28 18 -4 29 -3 30 10 12 8 -11 9 -20 4 -22 -6 -3 -5 -10 2 -18 6
-8 9 -15 5 -15 -24 -5 -33 -4 -45 5 -11 8 -13 8 -8 -1 4 -6 4 -14 -1 -17 -13
-8 -6 -60 9 -64 11 -3 11 -1 -1 7 -8 6 -10 11 -4 11 6 0 10 11 9 24 -2 18 1
23 12 19 10 -4 11 -8 3 -13 -16 -10 -9 -33 15 -48 19 -12 19 -13 -3 -7 -26 7
-27 -11 -2 -33 8 -8 10 -11 3 -8 -6 4 -14 2 -18 -4 -3 -5 0 -10 7 -10 10 0 10
-2 -1 -9 -8 -5 -10 -14 -5 -22 6 -11 4 -11 -10 0 -9 8 -13 17 -9 20 4 3 9 15
11 26 2 17 0 16 -12 -5 -8 -14 -12 -29 -9 -34 3 -5 6 -17 7 -27 1 -11 5 -18
11 -17 5 2 9 7 7 11 -1 5 2 6 8 2 6 -3 8 -10 5 -15 -3 -5 0 -12 5 -15 8 -5 6
-13 -6 -26 -14 -15 -20 -17 -33 -7 -13 11 -13 9 1 -7 9 -11 16 -24 16 -28 0
-5 9 -20 21 -33 19 -22 19 -29 -2 -25 -5 1 -5 -4 -2 -10 5 -8 10 -8 18 0 15
15 27 14 27 -4 0 -8 4 -15 8 -15 19 0 7 29 -16 39 -14 7 -22 17 -18 26 3 10 0
12 -12 9 -15 -5 -15 -4 1 9 12 10 14 17 8 22 -6 3 -11 1 -11 -5 0 -6 -5 -8
-11 -4 -8 4 -7 9 2 14 7 5 20 3 30 -3 13 -8 15 -13 6 -19 -9 -6 -9 -8 1 -8 7
0 18 -11 24 -25 8 -19 14 -22 20 -13 5 9 8 10 8 1 0 -6 -5 -15 -10 -18 -11 -7
5 -45 24 -57 8 -6 7 -8 -1 -8 -7 0 -16 7 -21 16 -6 11 -9 5 -9 -23 0 -21 2
-32 5 -25 3 10 8 9 23 -4 10 -9 16 -21 12 -27 -3 -5 -2 -8 3 -4 5 3 17 -1 27
-8 18 -13 18 -14 0 -24 -10 -6 -13 -11 -7 -11 5 0 15 5 20 10 8 8 15 6 25 -6
13 -16 12 -17 -6 -11 -18 7 -19 6 -3 -6 10 -8 14 -18 10 -22 -4 -5 -1 -5 6 -1
7 4 10 11 7 16 -3 4 2 11 11 14 10 4 13 2 8 -6 -5 -7 -2 -9 9 -5 10 4 26 -6
46 -29 17 -19 31 -31 31 -27 1 4 9 -2 19 -14 10 -12 22 -19 26 -15 5 4 4 1 0
-7 -6 -11 -4 -13 9 -8 10 4 15 3 11 -3 -3 -6 -1 -11 4 -11 12 -2 26 -5 39 -9
4 -1 11 -1 17 0 5 1 7 -2 3 -6 -10 -9 11 -36 23 -28 5 2 22 -2 38 -11 17 -8
39 -15 51 -15 12 0 19 -4 15 -10 -3 -5 7 -8 25 -5 16 2 32 0 35 -5 2 -4 18 -6
35 -5 19 2 27 -1 23 -8 -4 -6 0 -8 11 -4 11 4 15 3 10 -4 -4 -8 1 -9 15 -4 12
4 21 2 21 -4 0 -6 3 -10 8 -10 19 3 26 -2 13 -10 -10 -7 -19 -4 -29 7 -7 9
-11 11 -7 5 4 -9 1 -11 -9 -7 -10 4 -16 1 -16 -7 0 -7 3 -9 6 -6 4 3 14 2 24
-3 11 -6 24 -4 38 6 12 8 22 12 22 8 0 -4 12 3 27 17 14 13 23 19 20 13 -8
-13 30 -50 40 -40 4 4 1 11 -7 16 -20 13 -3 13 20 0 11 -6 17 -18 15 -30 -2
-11 1 -23 7 -26 7 -4 8 -2 4 4 -4 7 -3 12 1 12 5 0 14 -10 22 -21 11 -19 11
-21 -1 -16 -8 3 -15 -1 -15 -8 0 -8 5 -13 11 -12 16 3 26 20 18 32 -8 12 -12
35 -6 35 2 0 10 -12 18 -27 8 -16 15 -22 16 -15 0 8 5 10 13 5 6 -4 21 -9 32
-11 19 -2 19 -2 1 11 -17 12 -17 14 0 28 16 13 17 12 10 -6 -5 -15 -4 -17 5
-8 12 12 3 37 -11 28 -5 -3 -12 -1 -15 5 -4 6 -1 9 6 8 6 -2 14 3 17 11 2 8 0
11 -6 7 -10 -6 -26 23 -17 32 3 3 5 0 5 -6 0 -18 17 -15 38 6 17 17 17 20 3
29 -13 8 -11 9 9 7 14 -1 25 -3 25 -4 0 -1 10 -3 23 -6 14 -2 21 0 17 6 -4 7
3 9 18 6 28 -5 92 35 79 49 -4 5 -1 5 7 0 12 -7 11 -10 -3 -21 -10 -7 -18 -16
-19 -21 -1 -4 -5 -7 -9 -6 -5 2 -8 -1 -8 -6 0 -6 -9 -8 -19 -6 -11 2 -27 -3
-38 -10 -15 -11 -16 -16 -5 -27 11 -11 12 -10 7 2 -4 11 1 16 16 17 17 2 18
-1 8 -13 -8 -10 -9 -18 -2 -25 8 -8 13 -7 18 2 5 8 4 10 -3 5 -17 -10 -15 9 1
23 8 6 18 7 23 3 5 -4 6 -3 2 2 -4 5 0 15 10 22 9 7 19 8 22 4 3 -5 12 1 19
13 13 20 13 21 -2 8 -25 -20 -21 3 4 25 12 10 31 18 42 18 15 -1 16 0 5 3 -10
3 -18 8 -18 13 0 5 8 7 18 4 14 -5 15 -4 2 5 -11 8 -18 7 -26 -4 -10 -14 -12
-14 -17 -1 -7 16 16 40 27 28 4 -4 18 -7 30 -7 19 -1 21 4 18 35 -2 27 -1 31
7 20 10 -13 11 -13 11 0 0 8 -9 21 -21 28 -15 10 -18 16 -10 26 6 7 7 17 3 22
-4 4 1 2 11 -5 15 -12 17 -11 17 8 0 11 4 21 10 21 5 0 7 8 4 18 -5 14 -4 14
4 2 8 -10 8 -18 0 -27 -6 -7 -7 -13 -3 -13 4 0 2 -7 -5 -15 -7 -8 -16 -13 -20
-10 -5 3 -11 1 -15 -5 -3 -5 -2 -10 4 -10 5 0 18 -3 28 -6 15 -5 15 -4 3 5 -8
6 -12 11 -7 12 4 1 12 3 17 4 6 1 16 3 23 4 7 1 8 4 2 9 -12 9 -14 62 -2 62 4
0 6 4 2 9 -3 5 -1 12 4 15 5 4 13 1 17 -5 4 -7 3 -9 -3 -6 -5 3 -9 -7 -9 -23
0 -16 3 -27 8 -24 5 3 5 10 2 16 -4 6 -2 13 4 17 6 4 9 17 5 29 -3 12 -9 19
-14 16 -5 -3 -9 0 -9 5 0 20 27 11 38 -11 8 -17 11 -19 11 -6 1 9 -6 24 -15
32 -21 21 -12 20 28 -4 25 -14 37 -16 48 -9 13 9 13 10 -1 6 -24 -8 -35 4 -43
43 -6 31 -5 33 8 15 11 -15 17 -17 28 -7 10 8 18 8 25 1 8 -8 13 -7 18 0 4 7
1 10 -7 9 -8 -2 -13 7 -12 24 0 15 -2 26 -4 23 -10 -10 -48 48 -44 68 1 4 -3
7 -10 7 -6 0 -3 7 8 16 14 11 16 17 6 21 -10 4 -10 8 -1 19 6 8 16 11 22 7 6
-4 8 0 4 10 -3 9 -3 16 1 16 24 -4 42 3 42 16 0 8 -4 15 -9 15 -6 0 -9 18 -7
40 2 23 -1 40 -7 40 -6 0 -2 7 9 16 16 13 16 15 2 10 -10 -3 -19 -2 -22 2 -2
4 6 9 19 10 13 1 27 -3 30 -8 3 -6 1 -10 -6 -10 -7 0 -9 -3 -6 -7 4 -3 2 -12
-3 -18 -13 -16 17 -30 34 -16 6 5 15 9 19 9 5 0 11 2 13 5 3 2 -5 4 -17 3 -12
0 -24 5 -27 13 -3 9 0 11 9 6 11 -6 12 -5 2 6 -7 7 -13 17 -13 22 0 4 6 5 13
1 6 -4 9 -4 5 1 -4 4 -2 15 4 24 7 9 8 13 4 9 -5 -4 -15 -3 -23 3 -7 6 -13 8
-13 4 0 -4 -6 -2 -13 4 -10 8 -14 7 -14 -4 0 -8 4 -12 9 -9 4 3 8 3 8 0 0 -3
-8 -10 -18 -15 -15 -8 -18 -6 -17 7 2 29 16 43 36 37 10 -4 19 -2 19 3 0 11
-40 10 -56 -1 -6 -3 -16 -1 -24 5 -13 8 -12 9 2 5 9 -3 22 1 30 10 11 14 10
15 -8 9 -14 -4 -21 -2 -21 8 0 8 8 13 17 11 9 -2 17 3 17 11 0 17 -14 18 -20
2 -4 -8 -8 -4 -12 9 -4 13 -11 20 -17 17 -5 -3 -4 -12 3 -20 8 -10 8 -14 0
-14 -6 0 -11 5 -11 11 0 5 -6 7 -12 3 -7 -4 -5 1 4 12 9 10 17 23 16 27 0 5 4
12 8 15 4 4 4 1 0 -5 -4 -7 -2 -13 3 -13 6 0 11 7 11 16 0 8 4 13 9 9 5 -3 13
0 17 6 4 8 3 9 -4 5 -7 -4 -12 -2 -12 5 0 8 -5 7 -17 -2 -9 -8 -14 -9 -10 -3
4 7 -1 15 -10 18 -12 5 -13 10 -5 18 6 6 8 17 5 24 -3 8 0 14 6 14 6 0 10 -3
9 -7 -2 -5 0 -9 5 -10 16 -6 25 -2 31 13 5 14 4 15 -8 5 -11 -10 -16 -8 -24 6
-6 10 -14 17 -19 16 -4 -2 -8 1 -8 6 0 5 -4 13 -9 18 -5 4 -6 3 -2 -4 3 -6 2
-15 -4 -18 -14 -9 -42 14 -34 27 4 6 10 5 15 -3 6 -10 9 -10 9 -2 0 6 -5 15
-11 18 -6 5 -4 12 8 21 10 7 13 14 7 14 -13 0 -36 -25 -29 -31 2 -3 -5 -5 -16
-5 -18 0 -18 2 -5 12 9 6 16 20 16 32 0 11 6 22 13 25 6 3 2 4 -11 4 -12 -1
-21 -6 -18 -13 6 -15 -9 -37 -28 -40 -9 -1 -14 2 -10 7 3 5 9 7 14 4 5 -3 8 4
7 15 -2 24 -2 24 -21 4 -9 -8 -16 -11 -16 -5 0 5 7 17 16 25 8 9 11 16 5 16
-5 0 -17 -7 -26 -16 -15 -16 -16 -16 -13 1 2 11 -4 19 -15 21 -11 1 -22 6 -25
10 -4 4 1 4 11 1 9 -4 17 -2 17 2 0 5 -5 11 -12 13 -7 3 -5 7 6 11 10 4 15 3
11 -3 -3 -6 -1 -10 4 -10 6 0 10 -4 9 -9 -2 -5 0 -9 5 -10 20 -3 27 0 27 10 0
5 -5 7 -10 4 -9 -5 -35 40 -32 56 0 3 -6 6 -13 6 -11 0 -12 -4 -3 -14 6 -7 7
-17 3 -21 -4 -4 -10 -1 -12 6 -8 20 -45 52 -55 46 -13 -8 -10 20 4 34 9 9 9
12 0 12 -7 0 -12 -5 -12 -11 0 -6 -8 -8 -19 -4 -13 4 -23 0 -30 -12 -6 -10
-11 -13 -11 -7 0 5 6 16 13 23 10 10 9 12 -3 11 -34 -5 -41 0 -34 22 6 21 5
21 -10 9 -12 -10 -20 -11 -28 -3 -6 6 -17 8 -24 5 -8 -3 -14 0 -14 7 0 7 -7
10 -15 6 -25 -9 -17 2 13 18 15 8 21 15 14 16 -10 0 -10 5 -2 23 11 21 10 21
-4 3 -9 -10 -13 -24 -9 -30 3 -6 3 -8 -2 -4 -4 4 -15 2 -24 -4 -9 -7 -13 -8
-8 -3 9 11 -42 45 -59 38 -8 -3 -12 3 -11 15 0 12 5 18 9 16 5 -3 6 -9 4 -13
-3 -4 1 -8 8 -8 7 0 13 6 13 13 0 7 -3 12 -6 12 -14 -3 -61 26 -65 41 -3 9 -4
5 -3 -9z m24 -40 c1 -11 -2 -20 -7 -20 -6 0 -7 17 -1 38 3 8 7 -1 8 -18z m-52
0 c3 -5 1 -10 -5 -10 -6 0 -9 -4 -6 -8 2 -4 -4 -9 -15 -9 -22 -2 -24 8 -7 25
15 15 25 15 33 2z m-310 -32 c5 4 5 1 1 -5 -10 -18 -23 -16 -30 3 -5 13 -4 14
7 6 8 -7 18 -8 22 -4z m17 -30 c-7 -7 -12 -8 -12 -2 0 14 12 26 19 19 2 -3 -1
-11 -7 -17z m385 7 c0 -8 -4 -12 -9 -9 -5 3 -6 10 -3 15 9 13 12 11 12 -6z
m-193 -3 c3 -5 -1 -9 -9 -9 -8 0 -12 4 -9 9 3 4 7 8 9 8 2 0 6 -4 9 -8z m446
-125 c4 1 14 -4 20 -12 9 -11 9 -15 1 -15 -6 0 -11 6 -12 13 0 10 -2 10 -6 0
-2 -7 -11 -13 -20 -13 -8 0 -13 6 -10 13 2 6 0 21 -5 32 l-9 20 16 -20 c9 -11
20 -19 25 -18z m-968 -33 c-9 -16 -10 -14 -9 8 1 15 6 23 11 18 4 -4 4 -16 -2
-26z m-100 -6 c-9 -9 -15 -9 -24 1 -9 10 -9 12 -1 7 6 -3 15 -1 18 5 4 5 10 8
13 4 3 -3 0 -11 -6 -17z m1105 -20 c-3 -8 -6 -5 -6 6 -1 11 2 17 5 13 3 -3 4
-12 1 -19z m129 -137 c-7 -10 28 -43 40 -39 5 2 10 0 12 -4 5 -17 2 -28 -9
-28 -5 0 -7 5 -3 12 5 8 2 9 -9 5 -10 -4 -16 -2 -14 5 2 12 -2 13 -40 17 -16
2 -15 3 2 11 11 5 16 9 12 9 -9 1 0 21 9 21 3 0 3 -4 0 -9z m-1381 -280 c3 -5
2 -12 -3 -15 -5 -3 -9 1 -9 9 0 17 3 19 12 6z m1550 -32 c-10 -15 -25 -10 -19
6 4 8 10 12 15 9 5 -3 7 -10 4 -15z m-1575 -29 c0 -5 -5 -10 -11 -10 -5 0 -7
5 -4 10 3 6 8 10 11 10 2 0 4 -4 4 -10z m1504 -6 c3 -8 2 -12 -4 -9 -6 3 -10
10 -10 16 0 14 7 11 14 -7z m71 -34 c3 -5 1 -10 -4 -10 -6 0 -11 5 -11 10 0 6
2 10 4 10 3 0 8 -4 11 -10z m-1552 -45 c-3 -9 -8 -14 -10 -11 -3 3 -2 9 2 15
9 16 15 13 8 -4z m1475 -219 c17 -22 19 -32 11 -42 -12 -15 -33 -9 -24 7 4 5
1 9 -6 9 -7 0 -9 3 -6 7 4 3 -1 12 -11 20 -16 12 -16 13 2 7 16 -6 17 -5 6 17
-14 27 -4 18 28 -25z m-40 -81 c-3 -3 -9 2 -12 12 -6 14 -5 15 5 6 7 -7 10
-15 7 -18z m-1353 -25 c3 -5 1 -10 -4 -10 -6 0 -11 5 -11 10 0 6 2 10 4 10 3
0 8 -4 11 -10z m30 -66 c1 -17 26 -55 33 -50 5 3 14 1 22 -5 13 -7 13 -9 0 -9
-13 0 -13 -1 0 -10 8 -5 12 -11 9 -14 -3 -3 -31 18 -64 47 -56 51 -57 53 -29
52 16 -1 29 -6 29 -11z m33 -29 c-3 -3 -9 2 -12 12 -6 14 -5 15 5 6 7 -7 10
-15 7 -18z m1152 -95 c-5 -10 -15 -21 -22 -23 -8 -3 -6 -6 5 -6 10 -1 15 -6
12 -11 -5 -8 -12 -7 -22 1 -13 11 -13 14 2 25 10 7 15 20 12 28 -4 10 -1 13 8
9 11 -4 12 -10 5 -23z m-37 5 c-3 -9 -8 -14 -10 -11 -3 3 -2 9 2 15 9 16 15
13 8 -4z m-30 -90 c4 -8 1 -17 -5 -21 -7 -4 -8 -3 -4 4 4 7 2 12 -3 12 -6 0
-11 5 -11 10 0 15 17 12 23 -5z m-66 -30 c0 -8 -4 -12 -9 -9 -4 3 -8 0 -8 -7
0 -7 -3 -9 -6 -6 -4 4 -1 13 6 22 15 19 17 19 17 0z m-82 -25 c3 -5 1 -10 -4
-10 -6 0 -11 5 -11 10 0 6 2 10 4 10 3 0 8 -4 11 -10z m-313 -67 c-6 -2 -10
-8 -8 -12 3 -4 -1 -8 -9 -8 -8 0 -15 4 -15 8 0 8 19 17 35 17 6 0 4 -2 -3 -5z
m148 -34 c0 -4 -6 -9 -13 -12 -8 -3 -14 0 -14 7 0 7 6 13 14 13 7 0 13 -4 13
-8z m43 -23 c-4 -5 1 -7 12 -2 14 5 16 4 7 -7 -7 -8 -11 -16 -9 -18 1 -2 -6 5
-16 16 -17 20 -17 20 -11 0 5 -16 4 -17 -5 -5 -16 22 -13 29 8 27 11 0 17 -5
14 -11z"/>
<path d="M1709 761 c6 -10 7 -22 3 -26 -4 -5 -1 -5 6 -1 9 5 9 12 2 27 -6 10
-13 19 -16 19 -2 0 0 -8 5 -19z"/>
<path d="M336 601 c-3 -5 2 -15 12 -22 15 -12 16 -12 5 2 -7 9 -10 19 -6 22 3
4 4 7 0 7 -3 0 -8 -4 -11 -9z"/>
<path d="M1115 1841 c-3 -5 -2 -12 3 -15 5 -3 9 1 9 9 0 17 -3 19 -12 6z"/>
<path d="M1050 1820 c0 -5 5 -10 11 -10 5 0 7 5 4 10 -3 6 -8 10 -11 10 -2 0
-4 -4 -4 -10z"/>
<path d="M909 1800 c-6 -4 1 -7 15 -7 14 0 26 3 26 7 0 3 -7 7 -15 7 -8 0 -19
-4 -26 -7z"/>
<path d="M1234 1788 c1 -13 7 -21 11 -20 4 2 11 -2 15 -8 5 -8 9 -5 12 8 4 14
1 19 -11 18 -9 0 -15 5 -13 12 1 6 -2 12 -8 12 -5 0 -8 -10 -6 -22z"/>
<path d="M680 1767 c8 -7 21 -19 29 -27 11 -13 12 -12 3 6 -7 12 -19 24 -29
28 -16 5 -16 4 -3 -7z"/>
<path d="M607 1717 l-17 -32 20 24 c17 20 26 41 18 41 -2 0 -11 -15 -21 -33z"/>
<path d="M1336 1738 c3 -5 10 -6 15 -3 13 9 11 12 -6 12 -8 0 -12 -4 -9 -9z"/>
<path d="M1295 1719 c4 -6 10 -8 13 -5 3 3 11 1 18 -5 8 -7 14 -6 20 2 4 8 3
9 -4 5 -7 -4 -12 -2 -12 3 0 6 -9 11 -21 11 -12 0 -17 -4 -14 -11z"/>
<path d="M1392 1705 c-14 -31 -15 -46 -2 -25 7 12 12 12 22 2 16 -16 25 -15
32 4 5 13 4 14 -7 6 -17 -14 -38 3 -30 24 9 25 -3 15 -15 -11z"/>
<path d="M510 1680 c-9 -6 -10 -10 -3 -10 6 0 15 5 18 10 8 12 4 12 -15 0z"/>
<path d="M1480 1636 c0 -2 7 -7 16 -10 8 -3 12 -2 9 4 -6 10 -25 14 -25 6z"/>
<path d="M315 1601 c-3 -5 -2 -12 3 -15 5 -3 9 1 9 9 0 17 -3 19 -12 6z"/>
<path d="M305 1440 c-3 -6 -3 -9 2 -8 4 2 8 -1 8 -7 0 -5 -7 -9 -15 -8 -12 1
-11 -1 3 -11 18 -14 24 -32 7 -21 -5 3 -20 -4 -32 -15 -13 -12 -18 -21 -13
-20 21 4 25 0 13 -14 -7 -8 -16 -12 -19 -10 -3 2 -6 -3 -6 -11 0 -8 5 -12 10
-8 5 3 6 -4 3 -18 l-7 -24 15 25 c8 14 13 27 11 31 -2 3 9 20 25 37 16 18 26
32 23 32 -3 0 0 6 6 13 8 11 6 18 -8 31 -13 12 -21 14 -26 6z m-2 -75 c-3 -9
-8 -14 -10 -11 -3 3 -2 9 2 15 9 16 15 13 8 -4z"/>
<path d="M1693 1326 c-4 -5 -1 -6 5 -2 7 4 12 3 12 -1 0 -5 8 -9 18 -9 10 0
19 5 19 11 0 12 -47 13 -54 1z"/>
<path d="M216 1263 c-6 -14 -5 -15 5 -6 7 7 10 15 7 18 -3 3 -9 -2 -12 -12z"/>
<path d="M174 1119 c0 -9 6 -15 12 -12 20 7 23 29 5 29 -9 0 -17 -8 -17 -17z"/>
<path d="M165 1040 c-3 -5 -1 -10 4 -10 6 0 11 5 11 10 0 6 -2 10 -4 10 -3 0
-8 -4 -11 -10z"/>
<path d="M1764 1005 c1 -11 7 -30 14 -41 6 -12 9 -24 7 -28 -3 -3 -2 -4 2 -1
3 3 7 16 8 29 0 17 -4 22 -15 18 -13 -5 -13 -4 0 13 8 10 10 16 3 12 -6 -4
-14 -1 -17 5 -2 7 -4 4 -2 -7z"/>
<path d="M180 940 c0 -5 7 -7 15 -4 8 4 15 8 15 10 0 2 -7 4 -15 4 -8 0 -15
-4 -15 -10z"/>
<path d="M1746 918 c3 -5 10 -6 15 -3 13 9 11 12 -6 12 -8 0 -12 -4 -9 -9z"/>
<path d="M1714 893 c3 -8 3 -20 -1 -26 -13 -21 -11 -31 12 -55 16 -17 22 -19
22 -8 0 8 -4 13 -8 11 -4 -3 -9 2 -13 10 -6 18 10 30 18 13 2 -7 4 -3 2 9 -1
12 -5 26 -9 29 -12 12 -8 26 6 18 6 -4 8 -3 4 1 -14 16 -39 14 -33 -2z m21
-33 c-3 -5 -11 -10 -16 -10 -6 0 -7 5 -4 10 3 6 11 10 16 10 6 0 7 -4 4 -10z"/>
<path d="M174 862 c4 -7 2 -12 -3 -12 -7 0 -7 -7 1 -20 7 -11 17 -20 22 -20 4
0 3 7 -4 15 -6 8 -9 19 -6 24 4 5 1 13 -5 17 -8 4 -9 3 -5 -4z"/>
<path d="M150 821 c0 -6 4 -13 10 -16 6 -3 7 1 4 9 -7 18 -14 21 -14 7z"/>
<path d="M207 806 c-4 -10 -1 -13 8 -9 8 3 12 9 9 14 -7 12 -11 11 -17 -5z"/>
<path d="M174 750 c0 -13 4 -16 10 -10 7 7 7 13 0 20 -6 6 -10 3 -10 -10z"/>
<path d="M250 721 c0 -5 7 -11 14 -14 10 -4 13 -1 9 9 -6 15 -23 19 -23 5z"/>
<path d="M195 680 c3 -5 8 -10 11 -10 2 0 4 5 4 10 0 6 -5 10 -11 10 -5 0 -7
-4 -4 -10z"/>
<path d="M1708 683 c7 -3 16 -2 19 1 4 3 -2 6 -13 5 -11 0 -14 -3 -6 -6z"/>
<path d="M1656 595 c-9 -26 -7 -32 5 -12 6 10 9 21 6 23 -2 3 -7 -2 -11 -11z"/>
<path d="M446 482 c-3 -6 -2 -13 4 -17 6 -4 8 -10 5 -15 -3 -5 4 -7 15 -5 24
5 27 -12 3 -18 -16 -4 -16 -5 -1 -6 29 -2 32 20 5 46 -15 15 -27 21 -31 15z
m25 -19 c13 -16 12 -17 -3 -4 -17 13 -22 21 -14 21 2 0 10 -8 17 -17z"/>
<path d="M524 410 c0 -13 4 -16 10 -10 7 7 7 13 0 20 -6 6 -10 3 -10 -10z"/>
<path d="M501 404 c0 -11 3 -14 6 -6 3 7 2 16 -1 19 -3 4 -6 -2 -5 -13z"/>
<path d="M554 372 c11 -12 26 -20 33 -18 7 3 16 -2 21 -11 6 -11 11 -12 16 -4
12 18 -3 30 -30 25 -19 -3 -24 -1 -18 8 4 7 4 10 -1 6 -4 -4 -15 -2 -24 4 -9
8 -8 3 3 -10z"/>
<path d="M1493 353 c0 -9 4 -10 14 -2 7 6 13 12 13 14 0 1 -6 2 -13 2 -8 0
-14 -6 -14 -14z"/>
<path d="M593 321 c0 -11 5 -18 9 -15 4 3 5 11 1 19 -7 21 -12 19 -10 -4z"/>
<path d="M630 320 c0 -5 5 -10 10 -10 6 0 10 5 10 10 0 6 -4 10 -10 10 -5 0
-10 -4 -10 -10z"/>
<path d="M687 319 c7 -7 15 -10 18 -7 3 3 -2 9 -12 12 -14 6 -15 5 -6 -5z"/>
<path d="M1293 314 c3 -6 -3 -18 -14 -28 -12 -10 -18 -20 -14 -24 4 -4 12 1
19 10 12 16 14 15 36 -5 l24 -22 -18 23 c-11 12 -14 22 -8 22 7 0 12 5 12 12
0 6 -3 8 -7 5 -3 -4 -13 -1 -21 6 -9 6 -13 7 -9 1z"/>
<path d="M710 300 c-12 -7 -10 -9 7 -7 12 0 19 5 17 9 -6 10 -6 10 -24 -2z"/>
<path d="M753 281 c0 -11 5 -18 9 -15 4 3 5 11 1 19 -7 21 -12 19 -10 -4z"/>
<path d="M826 277 c3 -10 9 -15 12 -12 3 3 0 11 -7 18 -10 9 -11 8 -5 -6z"/>
<path d="M856 266 c2 -6 13 -17 23 -23 15 -10 19 -9 17 2 -3 18 -13 28 -31 31
-7 1 -12 -3 -9 -10z"/>
<path d="M1290 260 c0 -5 5 -10 11 -10 5 0 7 5 4 10 -3 6 -8 10 -11 10 -2 0
-4 -4 -4 -10z"/>
<path d="M1025 251 c-3 -6 -1 -19 4 -28 6 -11 11 -13 11 -5 0 7 5 10 10 7 8
-5 8 -11 1 -19 -8 -9 -7 -13 4 -13 8 0 12 4 9 9 -9 13 13 9 25 -5 6 -8 7 -18
3 -22 -4 -5 -1 -5 6 -1 10 6 10 11 1 22 -6 8 -7 14 -2 14 5 0 10 7 10 16 0 15
-1 15 -12 0 -11 -14 -15 -14 -38 9 -15 16 -28 22 -32 16z"/>
<path d="M1260 241 c0 -6 5 -11 11 -11 5 0 7 -4 4 -10 -3 -5 -1 -10 4 -10 16
0 13 16 -4 30 -10 9 -15 9 -15 1z"/>
<path d="M995 220 c3 -5 8 -10 11 -10 2 0 4 5 4 10 0 6 -5 10 -11 10 -5 0 -7
-4 -4 -10z"/>
</g>
</svg>
